<?xml version="1.0" standalone="no"?><!DOCTYPE svg PUBLIC "-//W3C//DTD SVG 1.1//EN" "http://www.w3.org/Graphics/SVG/1.1/DTD/svg11.dtd"><svg t="1764383465349" class="icon" viewBox="0 0 1024 1024" version="1.1" xmlns="http://www.w3.org/2000/svg" p-id="14172" xmlns:xlink="http://www.w3.org/1999/xlink" width="200" height="200"><path d="M847.458 311.46c34.366 34.366 34.366 90.085 0 124.451L660.575 622.794l-13.025 154.44c-4.577 54.265-70.522 78.384-109.029 39.877L395.462 674.053 288.557 780.958c-12.496 12.497-32.758 12.496-45.254 0-12.497-12.497-12.497-32.758 0-45.255l106.905-106.905-144.161-144.161c-38.506-38.507-14.387-104.451 39.877-109.028l160.608-13.546 183.54-183.539c34.366-34.366 90.084-34.366 124.45 0L847.458 311.46z m-178.191-87.681c-9.372-9.372-24.568-9.372-33.941 0L442.993 416.112c-6.966 6.966-16.344 10.047-25.445 9.247l-0.148 0.015-166.098 14.008 332.474 332.475 14.008-166.099c0.721-8.551 4.743-16.031 10.705-21.295 0.443-0.501 0.902-0.994 1.382-1.474l192.333-192.333c9.372-9.372 9.372-24.568 0-33.941L669.267 223.779z" fill="#707070" p-id="14173"></path></svg>